<?xml version="1.0" encoding="UTF-8" standalone="no"?>
<!DOCTYPE svg PUBLIC "-//W3C//DTD SVG 1.1//EN"
 "http://www.w3.org/Graphics/SVG/1.1/DTD/svg11.dtd">
<!-- Generated by graphviz version 2.43.20190912.0211 (20190912.0211)
 -->
<!-- Title: image_b_rom Pages: 1 -->
<svg width="4348pt" height="898pt"
 viewBox="0.00 0.00 4347.93 898.00" xmlns="http://www.w3.org/2000/svg" xmlns:xlink="http://www.w3.org/1999/xlink">
<g id="graph0" class="graph" transform="scale(1 1) rotate(0) translate(4 894)">
<title>image_b_rom</title>
<polygon fill="white" stroke="transparent" points="-4,4 -4,-894 4343.93,-894 4343.93,4 -4,4"/>
<text text-anchor="middle" x="2169.97" y="-7.8" font-family="Times,serif" font-size="14.00">image_b_rom</text>
<!-- n14 -->
<g id="node1" class="node">
<title>n14</title>
<polygon fill="none" stroke="black" points="2995.97,-580.54 2995.97,-595.46 2979.16,-606 2955.4,-606 2938.59,-595.46 2938.59,-580.54 2955.4,-570 2979.16,-570 2995.97,-580.54"/>
<text text-anchor="middle" x="2967.28" y="-584.3" font-family="Times,serif" font-size="14.00">addr</text>
</g>
<!-- c45 -->
<g id="node27" class="node">
<title>c45</title>
<polygon fill="none" stroke="black" points="3047.12,-553.5 3047.12,-622.5 3147.12,-622.5 3147.12,-553.5 3047.12,-553.5"/>
<text text-anchor="middle" x="3060.12" y="-607.3" font-family="Times,serif" font-size="14.00">A</text>
<polyline fill="none" stroke="black" points="3047.12,-599.5 3073.12,-599.5 "/>
<text text-anchor="middle" x="3060.12" y="-584.3" font-family="Times,serif" font-size="14.00">B</text>
<polyline fill="none" stroke="black" points="3047.12,-576.5 3073.12,-576.5 "/>
<text text-anchor="middle" x="3060.12" y="-561.3" font-family="Times,serif" font-size="14.00">S</text>
<polyline fill="none" stroke="black" points="3073.12,-553.5 3073.12,-622.5 "/>
<text text-anchor="middle" x="3097.12" y="-591.8" font-family="Times,serif" font-size="14.00">$15</text>
<text text-anchor="middle" x="3097.12" y="-576.8" font-family="Times,serif" font-size="14.00">$mux</text>
<polyline fill="none" stroke="black" points="3121.12,-553.5 3121.12,-622.5 "/>
<text text-anchor="middle" x="3134.12" y="-584.3" font-family="Times,serif" font-size="14.00">Y</text>
</g>
<!-- n14&#45;&gt;c45 -->
<g id="edge6" class="edge">
<title>n14:e&#45;&gt;c45:w</title>
<path fill="none" stroke="#e7298a" stroke-width="3" d="M2996.12,-588C3014.53,-588 3021.5,-588 3035.97,-588"/>
<polygon fill="#e7298a" stroke="#e7298a" stroke-width="3" points="3036.12,-591.5 3046.12,-588 3036.12,-584.5 3036.12,-591.5"/>
</g>
<!-- n15 -->
<g id="node2" class="node">
<title>n15</title>
<polygon fill="none" stroke="black" points="2575.61,-463.54 2575.61,-478.46 2543.78,-489 2498.76,-489 2466.93,-478.46 2466.93,-463.54 2498.76,-453 2543.78,-453 2575.61,-463.54"/>
<text text-anchor="middle" x="2521.27" y="-467.3" font-family="Times,serif" font-size="14.00">addr_ready</text>
</g>
<!-- c28 -->
<g id="node12" class="node">
<title>c28</title>
<polygon fill="none" stroke="black" points="2611.44,-500 2611.44,-538 2737.44,-538 2737.44,-500 2611.44,-500"/>
<text text-anchor="middle" x="2624.44" y="-515.3" font-family="Times,serif" font-size="14.00">A</text>
<polyline fill="none" stroke="black" points="2637.44,-500 2637.44,-538 "/>
<text text-anchor="middle" x="2674.44" y="-522.8" font-family="Times,serif" font-size="14.00">$2</text>
<text text-anchor="middle" x="2674.44" y="-507.8" font-family="Times,serif" font-size="14.00">$logic_not</text>
<polyline fill="none" stroke="black" points="2711.44,-500 2711.44,-538 "/>
<text text-anchor="middle" x="2724.44" y="-515.3" font-family="Times,serif" font-size="14.00">Y</text>
</g>
<!-- n15&#45;&gt;c28 -->
<g id="edge8" class="edge">
<title>n15:e&#45;&gt;c28:w</title>
<path fill="none" stroke="#7570b3" d="M2575.44,-471C2597.94,-471 2589.11,-505.17 2601.83,-515.85"/>
<polygon fill="#7570b3" stroke="#7570b3" points="2600.85,-519.21 2611.44,-519 2603.02,-512.56 2600.85,-519.21"/>
</g>
<!-- c48 -->
<g id="node33" class="node">
<title>c48</title>
<polygon fill="none" stroke="black" points="3047.12,-139.5 3047.12,-208.5 3147.12,-208.5 3147.12,-139.5 3047.12,-139.5"/>
<text text-anchor="middle" x="3060.12" y="-193.3" font-family="Times,serif" font-size="14.00">A</text>
<polyline fill="none" stroke="black" points="3047.12,-185.5 3073.12,-185.5 "/>
<text text-anchor="middle" x="3060.12" y="-170.3" font-family="Times,serif" font-size="14.00">B</text>
<polyline fill="none" stroke="black" points="3047.12,-162.5 3073.12,-162.5 "/>
<text text-anchor="middle" x="3060.12" y="-147.3" font-family="Times,serif" font-size="14.00">S</text>
<polyline fill="none" stroke="black" points="3073.12,-139.5 3073.12,-208.5 "/>
<text text-anchor="middle" x="3097.12" y="-177.8" font-family="Times,serif" font-size="14.00">$23</text>
<text text-anchor="middle" x="3097.12" y="-162.8" font-family="Times,serif" font-size="14.00">$mux</text>
<polyline fill="none" stroke="black" points="3121.12,-139.5 3121.12,-208.5 "/>
<text text-anchor="middle" x="3134.12" y="-170.3" font-family="Times,serif" font-size="14.00">Y</text>
</g>
<!-- n15&#45;&gt;c48 -->
<g id="edge9" class="edge">
<title>n15:e&#45;&gt;c48:w</title>
<path fill="none" stroke="#7570b3" d="M2575.44,-471C2624.6,-471 2897.39,-245.05 2938.44,-218 2982.47,-188.98 2989.03,-155.62 3035.84,-151.44"/>
<polygon fill="#7570b3" stroke="#7570b3" points="3036.28,-154.92 3046.12,-151 3035.98,-147.93 3036.28,-154.92"/>
</g>
<!-- c50 -->
<g id="node36" class="node">
<title>c50</title>
<polygon fill="none" stroke="black" points="3861.6,-439.5 3861.6,-508.5 3961.6,-508.5 3961.6,-439.5 3861.6,-439.5"/>
<text text-anchor="middle" x="3874.6" y="-493.3" font-family="Times,serif" font-size="14.00">A</text>
<polyline fill="none" stroke="black" points="3861.6,-485.5 3887.6,-485.5 "/>
<text text-anchor="middle" x="3874.6" y="-470.3" font-family="Times,serif" font-size="14.00">B</text>
<polyline fill="none" stroke="black" points="3861.6,-462.5 3887.6,-462.5 "/>
<text text-anchor="middle" x="3874.6" y="-447.3" font-family="Times,serif" font-size="14.00">S</text>
<polyline fill="none" stroke="black" points="3887.6,-439.5 3887.6,-508.5 "/>
<text text-anchor="middle" x="3911.6" y="-477.8" font-family="Times,serif" font-size="14.00">$29</text>
<text text-anchor="middle" x="3911.6" y="-462.8" font-family="Times,serif" font-size="14.00">$mux</text>
<polyline fill="none" stroke="black" points="3935.6,-439.5 3935.6,-508.5 "/>
<text text-anchor="middle" x="3948.6" y="-470.3" font-family="Times,serif" font-size="14.00">Y</text>
</g>
<!-- n15&#45;&gt;c50 -->
<g id="edge10" class="edge">
<title>n15:e&#45;&gt;c50:w</title>
<path fill="none" stroke="#7570b3" d="M2575.44,-471C2691.66,-471 2720.72,-471 2836.94,-471 2836.94,-471 2836.94,-471 2968.28,-471 3248.93,-471 3317.47,-402.02 3597.6,-419 3711.69,-425.92 3741.15,-449.56 3850.48,-450.94"/>
<polygon fill="#7570b3" stroke="#7570b3" points="3850.58,-454.44 3860.6,-451 3850.62,-447.44 3850.58,-454.44"/>
</g>
<!-- n16 -->
<g id="node3" class="node">
<title>n16</title>
<polygon fill="none" stroke="black" points="3537.86,-721 3477.87,-703 3537.86,-685 3597.85,-703 3537.86,-721"/>
<text text-anchor="middle" x="3537.86" y="-699.3" font-family="Times,serif" font-size="14.00">addr_reg</text>
</g>
<!-- c36 -->
<g id="node20" class="node">
<title>c36</title>
<polygon fill="none" stroke="black" points="3633.6,-481.5 3633.6,-596.5 3823.6,-596.5 3823.6,-481.5 3633.6,-481.5"/>
<text text-anchor="middle" x="3661.1" y="-581.3" font-family="Times,serif" font-size="14.00">ADDR</text>
<polyline fill="none" stroke="black" points="3633.6,-573.5 3688.6,-573.5 "/>
<text text-anchor="middle" x="3661.1" y="-558.3" font-family="Times,serif" font-size="14.00">ARST</text>
<polyline fill="none" stroke="black" points="3633.6,-550.5 3688.6,-550.5 "/>
<text text-anchor="middle" x="3661.1" y="-535.3" font-family="Times,serif" font-size="14.00">CLK</text>
<polyline fill="none" stroke="black" points="3633.6,-527.5 3688.6,-527.5 "/>
<text text-anchor="middle" x="3661.1" y="-512.3" font-family="Times,serif" font-size="14.00">EN</text>
<polyline fill="none" stroke="black" points="3633.6,-504.5 3688.6,-504.5 "/>
<text text-anchor="middle" x="3661.1" y="-489.3" font-family="Times,serif" font-size="14.00">SRST</text>
<polyline fill="none" stroke="black" points="3688.6,-481.5 3688.6,-596.5 "/>
<text text-anchor="middle" x="3730.1" y="-542.8" font-family="Times,serif" font-size="14.00">$4</text>
<text text-anchor="middle" x="3730.1" y="-527.8" font-family="Times,serif" font-size="14.00">$memrd_v2</text>
<polyline fill="none" stroke="black" points="3771.6,-481.5 3771.6,-596.5 "/>
<text text-anchor="middle" x="3797.6" y="-535.3" font-family="Times,serif" font-size="14.00">DATA</text>
</g>
<!-- n16&#45;&gt;c36 -->
<g id="edge12" class="edge">
<title>n16:e&#45;&gt;c36:w</title>
<path fill="none" stroke="#d95f02" stroke-width="3" d="M3597.6,-703C3648.36,-703 3589,-601.87 3623.41,-586.85"/>
<polygon fill="#d95f02" stroke="#d95f02" stroke-width="3" points="3624.39,-590.23 3633.6,-585 3623.14,-583.35 3624.39,-590.23"/>
</g>
<!-- n16&#45;&gt;c45 -->
<g id="edge13" class="edge">
<title>n16:e&#45;&gt;c45:w</title>
<path fill="none" stroke="#d95f02" stroke-width="3" d="M3598.86,-703C3606.87,-703 3603.43,-715.24 3597.86,-721 3549.56,-770.98 3511.54,-731.89 3442.11,-735 3394.16,-737.15 3381.28,-743.88 3334.11,-735 3270.99,-723.12 3020.28,-627.76 3036.08,-612.93"/>
<polygon fill="#d95f02" stroke="#d95f02" stroke-width="3" points="3036.96,-616.33 3046.12,-611 3035.64,-609.46 3036.96,-616.33"/>
</g>
<!-- n17 -->
<g id="node4" class="node">
<title>n17</title>
<polygon fill="none" stroke="black" points="2726.56,-567.54 2726.56,-582.46 2696.03,-593 2652.85,-593 2622.32,-582.46 2622.32,-567.54 2652.85,-557 2696.03,-557 2726.56,-567.54"/>
<text text-anchor="middle" x="2674.44" y="-571.3" font-family="Times,serif" font-size="14.00">addr_valid</text>
</g>
<!-- c26 -->
<g id="node10" class="node">
<title>c26</title>
<polygon fill="none" stroke="black" points="2773.44,-518 2773.44,-564 2902.44,-564 2902.44,-518 2773.44,-518"/>
<text text-anchor="middle" x="2786.44" y="-548.8" font-family="Times,serif" font-size="14.00">A</text>
<polyline fill="none" stroke="black" points="2773.44,-541 2799.44,-541 "/>
<text text-anchor="middle" x="2786.44" y="-525.8" font-family="Times,serif" font-size="14.00">B</text>
<polyline fill="none" stroke="black" points="2799.44,-518 2799.44,-564 "/>
<text text-anchor="middle" x="2837.94" y="-544.8" font-family="Times,serif" font-size="14.00">$3</text>
<text text-anchor="middle" x="2837.94" y="-529.8" font-family="Times,serif" font-size="14.00">$logic_and</text>
<polyline fill="none" stroke="black" points="2876.44,-518 2876.44,-564 "/>
<text text-anchor="middle" x="2889.44" y="-537.3" font-family="Times,serif" font-size="14.00">Y</text>
</g>
<!-- n17&#45;&gt;c26 -->
<g id="edge14" class="edge">
<title>n17:e&#45;&gt;c26:w</title>
<path fill="none" stroke="#1b9e77" d="M2727.44,-575C2746.21,-575 2749.89,-559.91 2763.48,-554.73"/>
<polygon fill="#1b9e77" stroke="#1b9e77" points="2764.18,-558.16 2773.44,-553 2762.99,-551.26 2764.18,-558.16"/>
</g>
<!-- n18 -->
<g id="node5" class="node">
<title>n18</title>
<polygon fill="none" stroke="black" points="1152.05,-559.54 1152.05,-574.46 1136.23,-585 1113.87,-585 1098.05,-574.46 1098.05,-559.54 1113.87,-549 1136.23,-549 1152.05,-559.54"/>
<text text-anchor="middle" x="1125.05" y="-563.3" font-family="Times,serif" font-size="14.00">clk</text>
</g>
<!-- c39 -->
<g id="node21" class="node">
<title>c39</title>
<polygon fill="none" stroke="black" points="2304.6,-448 2304.6,-494 2412.6,-494 2412.6,-448 2304.6,-448"/>
<text text-anchor="middle" x="2326.6" y="-478.8" font-family="Times,serif" font-size="14.00">CLK</text>
<polyline fill="none" stroke="black" points="2304.6,-471 2348.6,-471 "/>
<text text-anchor="middle" x="2326.6" y="-455.8" font-family="Times,serif" font-size="14.00">D</text>
<polyline fill="none" stroke="black" points="2348.6,-448 2348.6,-494 "/>
<text text-anchor="middle" x="2367.6" y="-474.8" font-family="Times,serif" font-size="14.00">$34</text>
<text text-anchor="middle" x="2367.6" y="-459.8" font-family="Times,serif" font-size="14.00">$dff</text>
<polyline fill="none" stroke="black" points="2386.6,-448 2386.6,-494 "/>
<text text-anchor="middle" x="2399.6" y="-467.3" font-family="Times,serif" font-size="14.00">Q</text>
</g>
<!-- n18&#45;&gt;c39 -->
<g id="edge15" class="edge">
<title>n18:e&#45;&gt;c39:w</title>
<path fill="none" stroke="#1b9e77" d="M1153.05,-567C1662.39,-567 1789.22,-484.1 2293.51,-483.01"/>
<polygon fill="#1b9e77" stroke="#1b9e77" points="2293.6,-486.51 2303.6,-483 2293.6,-479.51 2293.6,-486.51"/>
</g>
<!-- c40 -->
<g id="node22" class="node">
<title>c40</title>
<polygon fill="none" stroke="black" points="4135.59,-422 4135.59,-468 4243.59,-468 4243.59,-422 4135.59,-422"/>
<text text-anchor="middle" x="4157.59" y="-452.8" font-family="Times,serif" font-size="14.00">CLK</text>
<polyline fill="none" stroke="black" points="4135.59,-445 4179.59,-445 "/>
<text text-anchor="middle" x="4157.59" y="-429.8" font-family="Times,serif" font-size="14.00">D</text>
<polyline fill="none" stroke="black" points="4179.59,-422 4179.59,-468 "/>
<text text-anchor="middle" x="4198.59" y="-448.8" font-family="Times,serif" font-size="14.00">$35</text>
<text text-anchor="middle" x="4198.59" y="-433.8" font-family="Times,serif" font-size="14.00">$dff</text>
<polyline fill="none" stroke="black" points="4217.59,-422 4217.59,-468 "/>
<text text-anchor="middle" x="4230.59" y="-441.3" font-family="Times,serif" font-size="14.00">Q</text>
</g>
<!-- n18&#45;&gt;c40 -->
<g id="edge16" class="edge">
<title>n18:e&#45;&gt;c40:w</title>
<path fill="none" stroke="#1b9e77" d="M1153.05,-567C1761.85,-567 1911.47,-651 2520.27,-651 2520.27,-651 2520.27,-651 3249.11,-651 3461.78,-651 3514.94,-654 3727.6,-654 3727.6,-654 3727.6,-654 3912.6,-654 4041.36,-654 4005.42,-467.25 4125.49,-457.4"/>
<polygon fill="#1b9e77" stroke="#1b9e77" points="4125.74,-460.9 4135.59,-457 4125.46,-453.9 4125.74,-460.9"/>
</g>
<!-- c41 -->
<g id="node23" class="node">
<title>c41</title>
<polygon fill="none" stroke="black" points="3334.11,-97 3334.11,-143 3442.11,-143 3442.11,-97 3334.11,-97"/>
<text text-anchor="middle" x="3356.11" y="-127.8" font-family="Times,serif" font-size="14.00">CLK</text>
<polyline fill="none" stroke="black" points="3334.11,-120 3378.11,-120 "/>
<text text-anchor="middle" x="3356.11" y="-104.8" font-family="Times,serif" font-size="14.00">D</text>
<polyline fill="none" stroke="black" points="3378.11,-97 3378.11,-143 "/>
<text text-anchor="middle" x="3397.11" y="-123.8" font-family="Times,serif" font-size="14.00">$36</text>
<text text-anchor="middle" x="3397.11" y="-108.8" font-family="Times,serif" font-size="14.00">$dff</text>
<polyline fill="none" stroke="black" points="3416.11,-97 3416.11,-143 "/>
<text text-anchor="middle" x="3429.11" y="-116.3" font-family="Times,serif" font-size="14.00">Q</text>
</g>
<!-- n18&#45;&gt;c41 -->
<g id="edge17" class="edge">
<title>n18:e&#45;&gt;c41:w</title>
<path fill="none" stroke="#1b9e77" d="M1153.05,-567C1801.6,-567 1871.72,-57 2520.27,-57 2520.27,-57 2520.27,-57 3098.12,-57 3188.21,-57 3219.61,-45.8 3298.11,-90 3315.85,-99.99 3312.04,-122.24 3324.17,-129.59"/>
<polygon fill="#1b9e77" stroke="#1b9e77" points="3323.57,-133.05 3334.11,-132 3325.22,-126.24 3323.57,-133.05"/>
</g>
<!-- c42 -->
<g id="node24" class="node">
<title>c42</title>
<polygon fill="none" stroke="black" points="3334.11,-680 3334.11,-726 3442.11,-726 3442.11,-680 3334.11,-680"/>
<text text-anchor="middle" x="3356.11" y="-710.8" font-family="Times,serif" font-size="14.00">CLK</text>
<polyline fill="none" stroke="black" points="3334.11,-703 3378.11,-703 "/>
<text text-anchor="middle" x="3356.11" y="-687.8" font-family="Times,serif" font-size="14.00">D</text>
<polyline fill="none" stroke="black" points="3378.11,-680 3378.11,-726 "/>
<text text-anchor="middle" x="3397.11" y="-706.8" font-family="Times,serif" font-size="14.00">$37</text>
<text text-anchor="middle" x="3397.11" y="-691.8" font-family="Times,serif" font-size="14.00">$dff</text>
<polyline fill="none" stroke="black" points="3416.11,-680 3416.11,-726 "/>
<text text-anchor="middle" x="3429.11" y="-699.3" font-family="Times,serif" font-size="14.00">Q</text>
</g>
<!-- n18&#45;&gt;c42 -->
<g id="edge18" class="edge">
<title>n18:e&#45;&gt;c42:w</title>
<path fill="none" stroke="#1b9e77" d="M1153.05,-567C1768.95,-567 1904.37,-793 2520.27,-793 2520.27,-793 2520.27,-793 3098.12,-793 3205.13,-793 3222.61,-719.8 3324.03,-715.22"/>
<polygon fill="#1b9e77" stroke="#1b9e77" points="3324.19,-718.72 3334.11,-715 3324.04,-711.72 3324.19,-718.72"/>
</g>
<!-- n19 -->
<g id="node6" class="node">
<title>n19</title>
<polygon fill="none" stroke="black" points="4334.4,-463.54 4334.4,-478.46 4318.37,-489 4295.69,-489 4279.66,-478.46 4279.66,-463.54 4295.69,-453 4318.37,-453 4334.4,-463.54"/>
<text text-anchor="middle" x="4307.03" y="-467.3" font-family="Times,serif" font-size="14.00">data</text>
</g>
<!-- n19&#45;&gt;c50 -->
<g id="edge20" class="edge">
<title>n19:e&#45;&gt;c50:w</title>
<path fill="none" stroke="#e6ab02" stroke-width="3" d="M4335.03,-471C4343.04,-471 4339.7,-483.34 4334.03,-489 4216.71,-606.1 4127.3,-504.55 3961.6,-509 3917.17,-510.19 3894.3,-539.09 3861.6,-509 3860.98,-508.43 3860.41,-507.75 3859.89,-507"/>
<polygon fill="#e6ab02" stroke="#e6ab02" stroke-width="3" points="3863.38,-507.22 3860.6,-497 3856.4,-506.73 3863.38,-507.22"/>
</g>
<!-- n20 -->
<g id="node7" class="node">
<title>n20</title>
<polygon fill="none" stroke="black" points="3591.29,-33.54 3591.29,-48.46 3559.99,-59 3515.73,-59 3484.43,-48.46 3484.43,-33.54 3515.73,-23 3559.99,-23 3591.29,-33.54"/>
<text text-anchor="middle" x="3537.86" y="-37.3" font-family="Times,serif" font-size="14.00">data_ready</text>
</g>
<!-- c27 -->
<g id="node11" class="node">
<title>c27</title>
<polygon fill="none" stroke="black" points="3664.1,-30 3664.1,-76 3793.1,-76 3793.1,-30 3664.1,-30"/>
<text text-anchor="middle" x="3677.1" y="-60.8" font-family="Times,serif" font-size="14.00">A</text>
<polyline fill="none" stroke="black" points="3664.1,-53 3690.1,-53 "/>
<text text-anchor="middle" x="3677.1" y="-37.8" font-family="Times,serif" font-size="14.00">B</text>
<polyline fill="none" stroke="black" points="3690.1,-30 3690.1,-76 "/>
<text text-anchor="middle" x="3728.6" y="-56.8" font-family="Times,serif" font-size="14.00">$5</text>
<text text-anchor="middle" x="3728.6" y="-41.8" font-family="Times,serif" font-size="14.00">$logic_and</text>
<polyline fill="none" stroke="black" points="3767.1,-30 3767.1,-76 "/>
<text text-anchor="middle" x="3780.1" y="-49.3" font-family="Times,serif" font-size="14.00">Y</text>
</g>
<!-- n20&#45;&gt;c27 -->
<g id="edge22" class="edge">
<title>n20:e&#45;&gt;c27:w</title>
<path fill="none" stroke="#d95f02" d="M3592.86,-41C3620.22,-41 3629.47,-41 3652.59,-41"/>
<polygon fill="#d95f02" stroke="#d95f02" points="3652.6,-44.5 3662.6,-41 3652.6,-37.5 3652.6,-44.5"/>
</g>
<!-- n21 -->
<g id="node8" class="node">
<title>n21</title>
<polygon fill="none" stroke="black" points="3589.07,-112.54 3589.07,-127.46 3559.07,-138 3516.65,-138 3486.65,-127.46 3486.65,-112.54 3516.65,-102 3559.07,-102 3589.07,-112.54"/>
<text text-anchor="middle" x="3537.86" y="-116.3" font-family="Times,serif" font-size="14.00">data_valid</text>
</g>
<!-- n21&#45;&gt;c27 -->
<g id="edge24" class="edge">
<title>n21:e&#45;&gt;c27:w</title>
<path fill="none" stroke="#d95f02" d="M3589.86,-120C3626.59,-120 3623.2,-74.83 3652.41,-66.36"/>
<polygon fill="#d95f02" stroke="#d95f02" points="3653.15,-69.79 3662.6,-65 3652.23,-62.85 3653.15,-69.79"/>
</g>
<!-- c47 -->
<g id="node31" class="node">
<title>c47</title>
<polygon fill="none" stroke="black" points="3861.6,-89.5 3861.6,-158.5 3961.6,-158.5 3961.6,-89.5 3861.6,-89.5"/>
<text text-anchor="middle" x="3874.6" y="-143.3" font-family="Times,serif" font-size="14.00">A</text>
<polyline fill="none" stroke="black" points="3861.6,-135.5 3887.6,-135.5 "/>
<text text-anchor="middle" x="3874.6" y="-120.3" font-family="Times,serif" font-size="14.00">B</text>
<polyline fill="none" stroke="black" points="3861.6,-112.5 3887.6,-112.5 "/>
<text text-anchor="middle" x="3874.6" y="-97.3" font-family="Times,serif" font-size="14.00">S</text>
<polyline fill="none" stroke="black" points="3887.6,-89.5 3887.6,-158.5 "/>
<text text-anchor="middle" x="3911.6" y="-127.8" font-family="Times,serif" font-size="14.00">$20</text>
<text text-anchor="middle" x="3911.6" y="-112.8" font-family="Times,serif" font-size="14.00">$mux</text>
<polyline fill="none" stroke="black" points="3935.6,-89.5 3935.6,-158.5 "/>
<text text-anchor="middle" x="3948.6" y="-120.3" font-family="Times,serif" font-size="14.00">Y</text>
</g>
<!-- n21&#45;&gt;c47 -->
<g id="edge25" class="edge">
<title>n21:e&#45;&gt;c47:w</title>
<path fill="none" stroke="#d95f02" d="M3589.86,-120C3611.24,-120 3612.79,-135.13 3633.6,-140 3728.53,-162.21 3757.68,-148.05 3850.5,-147.05"/>
<polygon fill="#d95f02" stroke="#d95f02" points="3850.62,-150.55 3860.6,-147 3850.58,-143.55 3850.62,-150.55"/>
</g>
<!-- n22 -->
<g id="node9" class="node">
<title>n22</title>
<polygon fill="none" stroke="black" points="3124.12,-237.54 3124.12,-252.46 3108.3,-263 3085.94,-263 3070.12,-252.46 3070.12,-237.54 3085.94,-227 3108.3,-227 3124.12,-237.54"/>
<text text-anchor="middle" x="3097.12" y="-241.3" font-family="Times,serif" font-size="14.00">rst</text>
</g>
<!-- c44 -->
<g id="node26" class="node">
<title>c44</title>
<polygon fill="none" stroke="black" points="3198.11,-288.5 3198.11,-357.5 3298.11,-357.5 3298.11,-288.5 3198.11,-288.5"/>
<text text-anchor="middle" x="3211.11" y="-342.3" font-family="Times,serif" font-size="14.00">A</text>
<polyline fill="none" stroke="black" points="3198.11,-334.5 3224.11,-334.5 "/>
<text text-anchor="middle" x="3211.11" y="-319.3" font-family="Times,serif" font-size="14.00">B</text>
<polyline fill="none" stroke="black" points="3198.11,-311.5 3224.11,-311.5 "/>
<text text-anchor="middle" x="3211.11" y="-296.3" font-family="Times,serif" font-size="14.00">S</text>
<polyline fill="none" stroke="black" points="3224.11,-288.5 3224.11,-357.5 "/>
<text text-anchor="middle" x="3248.11" y="-326.8" font-family="Times,serif" font-size="14.00">$12</text>
<text text-anchor="middle" x="3248.11" y="-311.8" font-family="Times,serif" font-size="14.00">$mux</text>
<polyline fill="none" stroke="black" points="3272.11,-288.5 3272.11,-357.5 "/>
<text text-anchor="middle" x="3285.11" y="-319.3" font-family="Times,serif" font-size="14.00">Y</text>
</g>
<!-- n22&#45;&gt;c44 -->
<g id="edge26" class="edge">
<title>n22:e&#45;&gt;c44:w</title>
<path fill="none" stroke="#d95f02" d="M3125.12,-245C3161.93,-245 3158.61,-290.17 3187.9,-298.64"/>
<polygon fill="#d95f02" stroke="#d95f02" points="3187.74,-302.15 3198.11,-300 3188.66,-295.21 3187.74,-302.15"/>
</g>
<!-- c46 -->
<g id="node29" class="node">
<title>c46</title>
<polygon fill="none" stroke="black" points="3198.11,-504.5 3198.11,-573.5 3298.11,-573.5 3298.11,-504.5 3198.11,-504.5"/>
<text text-anchor="middle" x="3211.11" y="-558.3" font-family="Times,serif" font-size="14.00">A</text>
<polyline fill="none" stroke="black" points="3198.11,-550.5 3224.11,-550.5 "/>
<text text-anchor="middle" x="3211.11" y="-535.3" font-family="Times,serif" font-size="14.00">B</text>
<polyline fill="none" stroke="black" points="3198.11,-527.5 3224.11,-527.5 "/>
<text text-anchor="middle" x="3211.11" y="-512.3" font-family="Times,serif" font-size="14.00">S</text>
<polyline fill="none" stroke="black" points="3224.11,-504.5 3224.11,-573.5 "/>
<text text-anchor="middle" x="3248.11" y="-542.8" font-family="Times,serif" font-size="14.00">$18</text>
<text text-anchor="middle" x="3248.11" y="-527.8" font-family="Times,serif" font-size="14.00">$mux</text>
<polyline fill="none" stroke="black" points="3272.11,-504.5 3272.11,-573.5 "/>
<text text-anchor="middle" x="3285.11" y="-535.3" font-family="Times,serif" font-size="14.00">Y</text>
</g>
<!-- n22&#45;&gt;c46 -->
<g id="edge27" class="edge">
<title>n22:e&#45;&gt;c46:w</title>
<path fill="none" stroke="#d95f02" d="M3125.12,-245C3158.36,-245 3150.86,-278.72 3162.11,-310 3176.61,-350.31 3155.48,-491.37 3188.5,-513.16"/>
<polygon fill="#d95f02" stroke="#d95f02" points="3187.53,-516.53 3198.11,-516 3189.51,-509.81 3187.53,-516.53"/>
</g>
<!-- c49 -->
<g id="node35" class="node">
<title>c49</title>
<polygon fill="none" stroke="black" points="3198.11,-99.5 3198.11,-168.5 3298.11,-168.5 3298.11,-99.5 3198.11,-99.5"/>
<text text-anchor="middle" x="3211.11" y="-153.3" font-family="Times,serif" font-size="14.00">A</text>
<polyline fill="none" stroke="black" points="3198.11,-145.5 3224.11,-145.5 "/>
<text text-anchor="middle" x="3211.11" y="-130.3" font-family="Times,serif" font-size="14.00">B</text>
<polyline fill="none" stroke="black" points="3198.11,-122.5 3224.11,-122.5 "/>
<text text-anchor="middle" x="3211.11" y="-107.3" font-family="Times,serif" font-size="14.00">S</text>
<polyline fill="none" stroke="black" points="3224.11,-99.5 3224.11,-168.5 "/>
<text text-anchor="middle" x="3248.11" y="-137.8" font-family="Times,serif" font-size="14.00">$26</text>
<text text-anchor="middle" x="3248.11" y="-122.8" font-family="Times,serif" font-size="14.00">$mux</text>
<polyline fill="none" stroke="black" points="3272.11,-99.5 3272.11,-168.5 "/>
<text text-anchor="middle" x="3285.11" y="-130.3" font-family="Times,serif" font-size="14.00">Y</text>
</g>
<!-- n22&#45;&gt;c49 -->
<g id="edge28" class="edge">
<title>n22:e&#45;&gt;c49:w</title>
<path fill="none" stroke="#d95f02" d="M3125.12,-245C3145.47,-245 3150.08,-234.42 3162.11,-218 3189.45,-180.69 3154.34,-121.24 3187.99,-112.17"/>
<polygon fill="#d95f02" stroke="#d95f02" points="3188.58,-115.63 3198.11,-111 3187.78,-108.68 3188.58,-115.63"/>
</g>
<!-- c51 -->
<g id="node38" class="node">
<title>c51</title>
<polygon fill="none" stroke="black" points="3999.59,-383.5 3999.59,-452.5 4099.59,-452.5 4099.59,-383.5 3999.59,-383.5"/>
<text text-anchor="middle" x="4012.59" y="-437.3" font-family="Times,serif" font-size="14.00">A</text>
<polyline fill="none" stroke="black" points="3999.59,-429.5 4025.59,-429.5 "/>
<text text-anchor="middle" x="4012.59" y="-414.3" font-family="Times,serif" font-size="14.00">B</text>
<polyline fill="none" stroke="black" points="3999.59,-406.5 4025.59,-406.5 "/>
<text text-anchor="middle" x="4012.59" y="-391.3" font-family="Times,serif" font-size="14.00">S</text>
<polyline fill="none" stroke="black" points="4025.59,-383.5 4025.59,-452.5 "/>
<text text-anchor="middle" x="4049.59" y="-421.8" font-family="Times,serif" font-size="14.00">$32</text>
<text text-anchor="middle" x="4049.59" y="-406.8" font-family="Times,serif" font-size="14.00">$mux</text>
<polyline fill="none" stroke="black" points="4073.59,-383.5 4073.59,-452.5 "/>
<text text-anchor="middle" x="4086.59" y="-414.3" font-family="Times,serif" font-size="14.00">Y</text>
</g>
<!-- n22&#45;&gt;c51 -->
<g id="edge29" class="edge">
<title>n22:e&#45;&gt;c51:w</title>
<path fill="none" stroke="#d95f02" d="M3125.12,-245C3241.61,-245 3270.62,-253 3387.11,-253 3387.11,-253 3387.11,-253 3729.6,-253 3847.09,-253 3859.64,-321.25 3963.59,-376 3975.97,-382.52 3979.92,-390.32 3989.44,-393.52"/>
<polygon fill="#d95f02" stroke="#d95f02" points="3989.19,-397.02 3999.59,-395 3990.2,-390.09 3989.19,-397.02"/>
</g>
<!-- n5 -->
<g id="node42" class="node">
<title>n5</title>
<ellipse fill="black" stroke="black" cx="2967.28" cy="-541" rx="1.8" ry="1.8"/>
</g>
<!-- c26&#45;&gt;n5 -->
<g id="edge32" class="edge">
<title>c26:e&#45;&gt;n5:w</title>
<path fill="none" stroke="#7570b3" d="M2902.44,-541C2926.17,-541 2934.53,-541 2954.06,-541"/>
<polygon fill="#7570b3" stroke="#7570b3" points="2954.28,-544.5 2964.28,-541 2954.28,-537.5 2954.28,-544.5"/>
</g>
<!-- c27&#45;&gt;c47 -->
<g id="edge35" class="edge">
<title>c27:e&#45;&gt;c47:w</title>
<path fill="none" stroke="#666666" d="M3794.6,-53C3827.05,-53 3825.23,-91.41 3850.45,-99.51"/>
<polygon fill="#666666" stroke="#666666" points="3850.2,-103.01 3860.6,-101 3851.21,-96.09 3850.2,-103.01"/>
</g>
<!-- c28&#45;&gt;c26 -->
<g id="edge36" class="edge">
<title>c28:e&#45;&gt;c26:w</title>
<path fill="none" stroke="#a6761d" d="M2737.44,-519C2750.02,-519 2754.67,-524.74 2763.41,-527.52"/>
<polygon fill="#a6761d" stroke="#a6761d" points="2763.04,-531.01 2773.44,-529 2764.05,-524.08 2763.04,-531.01"/>
</g>
<!-- v0 -->
<g id="node13" class="node">
<title>v0</title>
<ellipse fill="none" stroke="black" cx="1125.05" cy="-872" rx="27" ry="18"/>
<text text-anchor="middle" x="1125.05" y="-868.3" font-family="Times,serif" font-size="14.00">0</text>
</g>
<!-- c31 -->
<g id="node15" class="node">
<title>c31</title>
<polygon fill="none" stroke="black" points="2286.1,-822 2286.1,-868 2431.1,-868 2431.1,-822 2286.1,-822"/>
<text text-anchor="middle" x="2313.6" y="-852.8" font-family="Times,serif" font-size="14.00">ADDR</text>
<polyline fill="none" stroke="black" points="2286.1,-845 2341.1,-845 "/>
<text text-anchor="middle" x="2313.6" y="-829.8" font-family="Times,serif" font-size="14.00">DATA</text>
<polyline fill="none" stroke="black" points="2341.1,-822 2341.1,-868 "/>
<text text-anchor="middle" x="2376.1" y="-848.8" font-family="Times,serif" font-size="14.00">$6</text>
<text text-anchor="middle" x="2376.1" y="-833.8" font-family="Times,serif" font-size="14.00">$meminit</text>
<polyline fill="none" stroke="black" points="2411.1,-822 2411.1,-868 "/>
<text text-anchor="middle" x="2421.1" y="-841.3" font-family="Times,serif" font-size="14.00"> </text>
</g>
<!-- v0&#45;&gt;c31 -->
<g id="edge39" class="edge">
<title>v0:e&#45;&gt;c31:w</title>
<path fill="none" stroke="#e6ab02" stroke-width="3" d="M1153.05,-872C1653.23,-872 1780.74,-857.2 2275.82,-857"/>
<polygon fill="#e6ab02" stroke="#e6ab02" stroke-width="3" points="2276.1,-860.5 2286.1,-857 2276.1,-853.5 2276.1,-860.5"/>
</g>
<!-- v1 -->
<g id="node14" class="node">
<title>v1</title>
<ellipse fill="none" stroke="black" cx="1125.05" cy="-818" rx="1125.1" ry="18"/>
<text text-anchor="middle" x="1125.05" y="-814.3" font-family="Times,serif" font-size="14.00">8192&#39;01100011010111110101111001011111010110000111000001110100010111010111011110010111100110111001110110011010100111001001010010010000011111010101001000110010001011110011010000110000001100000011001000110001001011010010101100101111001100100011010100110001...</text>
</g>
<!-- v1&#45;&gt;c31 -->
<g id="edge40" class="edge">
<title>v1:e&#45;&gt;c31:w</title>
<path fill="none" stroke="#1b9e77" stroke-width="3" d="M2250.1,-818C2263.37,-818 2267.26,-826.79 2276.14,-830.91"/>
<polygon fill="#1b9e77" stroke="#1b9e77" stroke-width="3" points="2275.6,-834.38 2286.1,-833 2277.03,-827.53 2275.6,-834.38"/>
</g>
<!-- v2 -->
<g id="node16" class="node">
<title>v2</title>
<ellipse fill="none" stroke="black" cx="3537.86" cy="-608" rx="27" ry="18"/>
<text text-anchor="middle" x="3537.86" y="-604.3" font-family="Times,serif" font-size="14.00">1&#39;0</text>
</g>
<!-- v2&#45;&gt;c36 -->
<g id="edge45" class="edge">
<title>v2:e&#45;&gt;c36:w</title>
<path fill="none" stroke="#7570b3" d="M3565.86,-608C3598.41,-608 3597.81,-571.19 3623.37,-563.43"/>
<polygon fill="#7570b3" stroke="#7570b3" points="3624.18,-566.85 3633.6,-562 3623.22,-559.92 3624.18,-566.85"/>
</g>
<!-- v3 -->
<g id="node17" class="node">
<title>v3</title>
<ellipse fill="none" stroke="black" cx="3537.86" cy="-554" rx="27" ry="18"/>
<text text-anchor="middle" x="3537.86" y="-550.3" font-family="Times,serif" font-size="14.00">1&#39;x</text>
</g>
<!-- v3&#45;&gt;c36 -->
<g id="edge46" class="edge">
<title>v3:e&#45;&gt;c36:w</title>
<path fill="none" stroke="#d95f02" d="M3565.86,-554C3592.96,-554 3600.93,-542.41 3623.4,-539.61"/>
<polygon fill="#d95f02" stroke="#d95f02" points="3623.83,-543.09 3633.6,-539 3623.41,-536.1 3623.83,-543.09"/>
</g>
<!-- v4 -->
<g id="node18" class="node">
<title>v4</title>
<ellipse fill="none" stroke="black" cx="3537.86" cy="-500" rx="27" ry="18"/>
<text text-anchor="middle" x="3537.86" y="-496.3" font-family="Times,serif" font-size="14.00">1&#39;1</text>
</g>
<!-- v4&#45;&gt;c36 -->
<g id="edge47" class="edge">
<title>v4:e&#45;&gt;c36:w</title>
<path fill="none" stroke="#d95f02" d="M3565.86,-500C3593.05,-500 3600.88,-512.36 3623.38,-515.35"/>
<polygon fill="#d95f02" stroke="#d95f02" points="3623.4,-518.86 3633.6,-516 3623.84,-511.88 3623.4,-518.86"/>
</g>
<!-- v5 -->
<g id="node19" class="node">
<title>v5</title>
<ellipse fill="none" stroke="black" cx="3537.86" cy="-446" rx="27" ry="18"/>
<text text-anchor="middle" x="3537.86" y="-442.3" font-family="Times,serif" font-size="14.00">1&#39;0</text>
</g>
<!-- v5&#45;&gt;c36 -->
<g id="edge48" class="edge">
<title>v5:e&#45;&gt;c36:w</title>
<path fill="none" stroke="#e6ab02" d="M3565.86,-446C3598.78,-446 3597.65,-483.94 3623.66,-491.64"/>
<polygon fill="#e6ab02" stroke="#e6ab02" points="3623.22,-495.12 3633.6,-493 3624.17,-488.18 3623.22,-495.12"/>
</g>
<!-- c36&#45;&gt;c50 -->
<g id="edge37" class="edge">
<title>c36:e&#45;&gt;c50:w</title>
<path fill="none" stroke="#7570b3" stroke-width="3" d="M3823.6,-539C3852.69,-539 3833.75,-489.23 3850.83,-476.79"/>
<polygon fill="#7570b3" stroke="#7570b3" stroke-width="3" points="3851.95,-480.11 3860.6,-474 3850.02,-473.38 3851.95,-480.11"/>
</g>
<!-- c39&#45;&gt;n15 -->
<g id="edge7" class="edge">
<title>c39:e&#45;&gt;n15:w</title>
<path fill="none" stroke="#7570b3" d="M2413.6,-471C2433.48,-471 2440.89,-471 2456.68,-471"/>
<polygon fill="#7570b3" stroke="#7570b3" points="2457.1,-474.5 2467.1,-471 2457.1,-467.5 2457.1,-474.5"/>
</g>
<!-- c40&#45;&gt;n19 -->
<g id="edge19" class="edge">
<title>c40:e&#45;&gt;n19:w</title>
<path fill="none" stroke="#e6ab02" stroke-width="3" d="M4243.59,-445C4259.17,-445 4260.29,-461.19 4269.77,-468.02"/>
<polygon fill="#e6ab02" stroke="#e6ab02" stroke-width="3" points="4269.01,-471.44 4279.59,-471 4271.04,-464.75 4269.01,-471.44"/>
</g>
<!-- c41&#45;&gt;n21 -->
<g id="edge23" class="edge">
<title>c41:e&#45;&gt;n21:w</title>
<path fill="none" stroke="#d95f02" d="M3442.11,-120C3457.61,-120 3463.84,-120 3475.57,-120"/>
<polygon fill="#d95f02" stroke="#d95f02" points="3475.86,-123.5 3485.86,-120 3475.86,-116.5 3475.86,-123.5"/>
</g>
<!-- c42&#45;&gt;n16 -->
<g id="edge11" class="edge">
<title>c42:e&#45;&gt;n16:w</title>
<path fill="none" stroke="#d95f02" stroke-width="3" d="M3442.11,-703C3454.11,-703 3459.36,-703 3467.99,-703"/>
<polygon fill="#d95f02" stroke="#d95f02" stroke-width="3" points="3468.11,-706.5 3478.11,-703 3468.11,-699.5 3468.11,-706.5"/>
</g>
<!-- v6 -->
<g id="node25" class="node">
<title>v6</title>
<ellipse fill="none" stroke="black" cx="3097.12" cy="-337" rx="27" ry="18"/>
<text text-anchor="middle" x="3097.12" y="-333.3" font-family="Times,serif" font-size="14.00">1&#39;0</text>
</g>
<!-- v6&#45;&gt;c44 -->
<g id="edge49" class="edge">
<title>v6:e&#45;&gt;c44:w</title>
<path fill="none" stroke="#1b9e77" d="M3125.12,-337C3154.41,-337 3163.18,-325.99 3187.82,-323.5"/>
<polygon fill="#1b9e77" stroke="#1b9e77" points="3188.29,-326.98 3198.11,-323 3187.96,-319.99 3188.29,-326.98"/>
</g>
<!-- c44&#45;&gt;c39 -->
<g id="edge1" class="edge">
<title>c44:e&#45;&gt;c39:w</title>
<path fill="none" stroke="#66a61e" d="M3299.11,-323C3314.67,-323 3309.27,-347.15 3298.11,-358 3266.24,-388.97 3237.87,-377.88 3198.11,-358 3174.26,-346.07 3185.35,-323.08 3162.11,-310 3086.67,-267.55 3054.84,-291 2968.28,-291 2673.44,-291 2673.44,-291 2673.44,-291 2587.58,-291 2248.78,-442.99 2293.58,-457.84"/>
<polygon fill="#66a61e" stroke="#66a61e" points="2293.26,-461.32 2303.6,-459 2294.07,-454.37 2293.26,-461.32"/>
</g>
<!-- c45&#45;&gt;c46 -->
<g id="edge38" class="edge">
<title>c45:e&#45;&gt;c46:w</title>
<path fill="none" stroke="#a6761d" stroke-width="3" d="M3148.12,-588C3169.25,-588 3172.48,-569.49 3188.02,-563.71"/>
<polygon fill="#a6761d" stroke="#a6761d" stroke-width="3" points="3188.84,-567.12 3198.11,-562 3187.67,-560.22 3188.84,-567.12"/>
</g>
<!-- v7 -->
<g id="node28" class="node">
<title>v7</title>
<ellipse fill="none" stroke="black" cx="3097.12" cy="-517" rx="64.99" ry="18"/>
<text text-anchor="middle" x="3097.12" y="-513.3" font-family="Times,serif" font-size="14.00">10&#39;0000000000</text>
</g>
<!-- v7&#45;&gt;c46 -->
<g id="edge50" class="edge">
<title>v7:e&#45;&gt;c46:w</title>
<path fill="none" stroke="#66a61e" stroke-width="3" d="M3162.11,-517C3176.76,-517 3179.05,-530.43 3188.29,-536.3"/>
<polygon fill="#66a61e" stroke="#66a61e" stroke-width="3" points="3187.54,-539.73 3198.11,-539 3189.4,-532.98 3187.54,-539.73"/>
</g>
<!-- c46&#45;&gt;c42 -->
<g id="edge21" class="edge">
<title>c46:e&#45;&gt;c42:w</title>
<path fill="none" stroke="#e6ab02" stroke-width="3" d="M3298.11,-539C3363.61,-539 3275.79,-674.27 3323.91,-689.59"/>
<polygon fill="#e6ab02" stroke="#e6ab02" stroke-width="3" points="3323.73,-693.1 3334.11,-691 3324.69,-686.17 3323.73,-693.1"/>
</g>
<!-- v8 -->
<g id="node30" class="node">
<title>v8</title>
<ellipse fill="none" stroke="black" cx="3728.6" cy="-113" rx="27" ry="18"/>
<text text-anchor="middle" x="3728.6" y="-109.3" font-family="Times,serif" font-size="14.00">1&#39;0</text>
</g>
<!-- v8&#45;&gt;c47 -->
<g id="edge51" class="edge">
<title>v8:e&#45;&gt;c47:w</title>
<path fill="none" stroke="#1b9e77" d="M3756.6,-113C3799.45,-113 3812.18,-122.35 3850.32,-123.81"/>
<polygon fill="#1b9e77" stroke="#1b9e77" points="3850.54,-127.31 3860.6,-124 3850.67,-120.31 3850.54,-127.31"/>
</g>
<!-- c47&#45;&gt;c48 -->
<g id="edge2" class="edge">
<title>c47:e&#45;&gt;c48:w</title>
<path fill="none" stroke="#1b9e77" d="M3962.6,-124C3978.16,-124 3972.26,-147.67 3961.6,-159 3832.34,-296.4 3727.5,-197 3538.86,-197 3387.11,-197 3387.11,-197 3387.11,-197 3280.32,-197 3253.88,-206.33 3147.12,-209 3124.9,-209.56 3063.47,-224.05 3047.12,-209 3046.5,-208.43 3045.93,-207.75 3045.41,-207"/>
<polygon fill="#1b9e77" stroke="#1b9e77" points="3048.9,-207.22 3046.12,-197 3041.92,-206.73 3048.9,-207.22"/>
</g>
<!-- v9 -->
<g id="node32" class="node">
<title>v9</title>
<ellipse fill="none" stroke="black" cx="2967.28" cy="-245" rx="27" ry="18"/>
<text text-anchor="middle" x="2967.28" y="-241.3" font-family="Times,serif" font-size="14.00">1&#39;1</text>
</g>
<!-- v9&#45;&gt;c48 -->
<g id="edge52" class="edge">
<title>v9:e&#45;&gt;c48:w</title>
<path fill="none" stroke="#e7298a" d="M2995.28,-245C3030.15,-245 3012.07,-187.69 3036.19,-176.05"/>
<polygon fill="#e7298a" stroke="#e7298a" points="3037.03,-179.45 3046.12,-174 3035.62,-172.59 3037.03,-179.45"/>
</g>
<!-- c48&#45;&gt;c49 -->
<g id="edge3" class="edge">
<title>c48:e&#45;&gt;c49:w</title>
<path fill="none" stroke="#1b9e77" d="M3148.12,-174C3167.74,-174 3173.09,-162.12 3188.03,-158.22"/>
<polygon fill="#1b9e77" stroke="#1b9e77" points="3188.61,-161.68 3198.11,-157 3187.76,-154.73 3188.61,-161.68"/>
</g>
<!-- v10 -->
<g id="node34" class="node">
<title>v10</title>
<ellipse fill="none" stroke="black" cx="3097.12" cy="-103" rx="27" ry="18"/>
<text text-anchor="middle" x="3097.12" y="-99.3" font-family="Times,serif" font-size="14.00">1&#39;0</text>
</g>
<!-- v10&#45;&gt;c49 -->
<g id="edge41" class="edge">
<title>v10:e&#45;&gt;c49:w</title>
<path fill="none" stroke="#66a61e" d="M3125.12,-103C3156.65,-103 3161.97,-127.81 3187.98,-133.04"/>
<polygon fill="#66a61e" stroke="#66a61e" points="3187.83,-136.54 3198.11,-134 3188.49,-129.57 3187.83,-136.54"/>
</g>
<!-- c49&#45;&gt;c41 -->
<g id="edge31" class="edge">
<title>c49:e&#45;&gt;c41:w</title>
<path fill="none" stroke="#1b9e77" d="M3298.11,-134C3313.69,-134 3314.81,-117.81 3324.29,-110.98"/>
<polygon fill="#1b9e77" stroke="#1b9e77" points="3325.56,-114.25 3334.11,-108 3323.53,-107.56 3325.56,-114.25"/>
</g>
<!-- c50&#45;&gt;c51 -->
<g id="edge4" class="edge">
<title>c50:e&#45;&gt;c51:w</title>
<path fill="none" stroke="#7570b3" stroke-width="3" d="M3962.6,-474C3980.5,-474 3979.19,-452.21 3989.89,-444.05"/>
<polygon fill="#7570b3" stroke="#7570b3" stroke-width="3" points="3991.1,-447.33 3999.59,-441 3989.01,-440.65 3991.1,-447.33"/>
</g>
<!-- v11 -->
<g id="node37" class="node">
<title>v11</title>
<ellipse fill="none" stroke="black" cx="3911.6" cy="-403" rx="51.99" ry="18"/>
<text text-anchor="middle" x="3911.6" y="-399.3" font-family="Times,serif" font-size="14.00">8&#39;00000000</text>
</g>
<!-- v11&#45;&gt;c51 -->
<g id="edge42" class="edge">
<title>v11:e&#45;&gt;c51:w</title>
<path fill="none" stroke="#a6761d" stroke-width="3" d="M3963.59,-403C3976.87,-403 3980.76,-411.79 3989.63,-415.91"/>
<polygon fill="#a6761d" stroke="#a6761d" stroke-width="3" points="3989.09,-419.38 3999.59,-418 3990.52,-412.53 3989.09,-419.38"/>
</g>
<!-- c51&#45;&gt;c40 -->
<g id="edge30" class="edge">
<title>c51:e&#45;&gt;c40:w</title>
<path fill="none" stroke="#1b9e77" stroke-width="3" d="M4099.59,-418C4112.87,-418 4116.76,-426.79 4125.63,-430.91"/>
<polygon fill="#1b9e77" stroke="#1b9e77" stroke-width="3" points="4125.09,-434.38 4135.59,-433 4126.52,-427.53 4125.09,-434.38"/>
</g>
<!-- v12 -->
<g id="node39" class="node">
<title>v12</title>
<ellipse fill="none" stroke="black" cx="2967.28" cy="-425" rx="27" ry="18"/>
<text text-anchor="middle" x="2967.28" y="-421.3" font-family="Times,serif" font-size="14.00">1&#39;0</text>
</g>
<!-- c52 -->
<g id="node41" class="node">
<title>c52</title>
<polygon fill="none" stroke="black" points="3047.12,-373.5 3047.12,-442.5 3147.12,-442.5 3147.12,-373.5 3047.12,-373.5"/>
<text text-anchor="middle" x="3060.12" y="-427.3" font-family="Times,serif" font-size="14.00">A</text>
<polyline fill="none" stroke="black" points="3047.12,-419.5 3073.12,-419.5 "/>
<text text-anchor="middle" x="3060.12" y="-404.3" font-family="Times,serif" font-size="14.00">B</text>
<polyline fill="none" stroke="black" points="3047.12,-396.5 3073.12,-396.5 "/>
<text text-anchor="middle" x="3060.12" y="-381.3" font-family="Times,serif" font-size="14.00">S</text>
<polyline fill="none" stroke="black" points="3073.12,-373.5 3073.12,-442.5 "/>
<text text-anchor="middle" x="3097.12" y="-411.8" font-family="Times,serif" font-size="14.00">$9</text>
<text text-anchor="middle" x="3097.12" y="-396.8" font-family="Times,serif" font-size="14.00">$mux</text>
<polyline fill="none" stroke="black" points="3121.12,-373.5 3121.12,-442.5 "/>
<text text-anchor="middle" x="3134.12" y="-404.3" font-family="Times,serif" font-size="14.00">Y</text>
</g>
<!-- v12&#45;&gt;c52 -->
<g id="edge43" class="edge">
<title>v12:e&#45;&gt;c52:w</title>
<path fill="none" stroke="#7570b3" d="M2995.28,-425C3014.12,-425 3021.02,-429.11 3035.75,-430.53"/>
<polygon fill="#7570b3" stroke="#7570b3" points="3035.97,-434.04 3046.12,-431 3036.29,-427.05 3035.97,-434.04"/>
</g>
<!-- v13 -->
<g id="node40" class="node">
<title>v13</title>
<ellipse fill="none" stroke="black" cx="2967.28" cy="-371" rx="27" ry="18"/>
<text text-anchor="middle" x="2967.28" y="-367.3" font-family="Times,serif" font-size="14.00">1&#39;1</text>
</g>
<!-- v13&#45;&gt;c52 -->
<g id="edge44" class="edge">
<title>v13:e&#45;&gt;c52:w</title>
<path fill="none" stroke="#e6ab02" d="M2995.28,-371C3019.3,-371 3018.94,-398.33 3036.1,-406.01"/>
<polygon fill="#e6ab02" stroke="#e6ab02" points="3035.63,-409.48 3046.12,-408 3036.99,-402.62 3035.63,-409.48"/>
</g>
<!-- c52&#45;&gt;c44 -->
<g id="edge5" class="edge">
<title>c52:e&#45;&gt;c44:w</title>
<path fill="none" stroke="#e7298a" d="M3148.12,-408C3179.51,-408 3166.71,-359.25 3188.08,-348.21"/>
<polygon fill="#e7298a" stroke="#e7298a" points="3189.1,-351.57 3198.11,-346 3187.59,-344.73 3189.1,-351.57"/>
</g>
<!-- n5&#45;&gt;c45 -->
<g id="edge33" class="edge">
<title>n5:e&#45;&gt;c45:w</title>
<path fill="none" stroke="#7570b3" d="M2970.28,-541C3001.91,-541 3009.35,-560.2 3035.87,-564.26"/>
<polygon fill="#7570b3" stroke="#7570b3" points="3035.89,-567.77 3046.12,-565 3036.4,-560.78 3035.89,-567.77"/>
</g>
<!-- n5&#45;&gt;c52 -->
<g id="edge34" class="edge">
<title>n5:e&#45;&gt;c52:w</title>
<path fill="none" stroke="#7570b3" d="M2970.28,-541C3043.61,-541 2976.31,-399.86 3035.9,-386.08"/>
<polygon fill="#7570b3" stroke="#7570b3" points="3036.54,-389.53 3046.12,-385 3035.81,-382.57 3036.54,-389.53"/>
</g>
</g>
</svg>
